<svg xmlns="http://www.w3.org/2000/svg" class="size-[23px]  md:size-[47px]" viewBox="0 0 47 47" fill="none"><g id="Component 1" clip-path="url(#clip0_76_501)"><path id="Vector" d="M23.7793 43.8303C35.3495 43.8303 44.729 34.4508 44.729 22.8806C44.729 11.3104 35.3495 1.93091 23.7793 1.93091C12.2091 1.93091 2.82959 11.3104 2.82959 22.8806C2.82959 34.4508 12.2091 43.8303 23.7793 43.8303Z" stroke="white" stroke-width="2.7933"></path><path id="Vector_2" d="M16.8169 11.707H19.2517L16.8099 18.3411H12.606L15.7764 12.3174C15.8732 12.134 16.0217 11.9797 16.2055 11.8719C16.3892 11.7641 16.6009 11.7071 16.8169 11.707ZM12.6898 20.5525L19.7056 30.9171L16.7471 20.5525H12.6898ZM19.1586 20.5525L22.7201 33.0356C22.7832 33.262 22.9233 33.4622 23.1187 33.605C23.314 33.7478 23.5536 33.8253 23.8001 33.8253C24.0467 33.8253 24.2862 33.7478 24.4816 33.605C24.677 33.4622 24.8171 33.262 24.8802 33.0356L28.451 20.5525H19.1586ZM30.8625 20.5525L27.897 30.9127L34.9105 20.5525H30.8625ZM34.9943 18.3411H30.7974L28.3532 11.707H30.7834C30.9997 11.7066 31.2119 11.7635 31.3961 11.8714C31.5804 11.9792 31.7293 12.1336 31.8262 12.3174L34.9943 18.3411ZM28.3323 18.3411H19.2773L21.7168 11.707H25.8835L28.3323 18.3411Z" fill="white"></path></g><defs><clipPath id="clip0_76_501"><rect width="46" height="46" fill="white" transform="translate(0.5 0.187988)"></rect></clipPath></defs></svg>